<svg width="84" height="84" viewBox="0 0 84 84" fill="none" xmlns="http://www.w3.org/2000/svg">
<circle cx="42" cy="42" r="39.5" stroke="#142351" stroke-width="5"/>
<path d="M46.6978 19.3375L48.3769 19.7125L49.7388 20.2L50.8396 20.7625L51.6791 21.3625L52.3134 22L52.7799 22.6375L53.0784 23.2562L53.2649 23.8187L53.3396 24.3062L53.3769 24.6813L53.3582 24.925V34.9375L53.2649 36.1187L53.0224 37.15L52.6306 38.0125L52.1455 38.725L51.5858 39.3062L50.9702 39.775L50.3172 40.1313L49.6642 40.3937L49.0485 40.5813L48.4888 40.7125L48.0037 40.7875L47.6119 40.825H36.4739L35.1866 40.9187L34.0858 41.1812L33.153 41.5938L32.3881 42.1L31.7724 42.7L31.2687 43.3562L30.8955 44.0312L30.6157 44.725L30.4291 45.3812L30.2985 45.9813L30.2239 46.4875L30.1866 46.8813V52.6188H26.0261L25.6343 52.5625L25.1119 52.4313L24.5149 52.2062L23.8619 51.8688L23.1903 51.3813L22.5187 50.7062L21.8657 49.8438L21.2687 48.7375L20.7463 47.3687L20.3545 45.7188L20.0933 43.75L20 41.4438L20.1119 39.1562L20.4104 37.2062L20.8582 35.575L21.4552 34.2438L22.1269 33.175L22.8731 32.35L23.6567 31.7312L24.4403 31.2812L25.1866 30.9812L25.8582 30.7937L26.4552 30.7L26.903 30.6812H27.2015L27.3134 30.7H42.5373V29.1437H31.6418L31.6231 23.9875L31.5858 23.2937L31.6791 22.6562L31.8843 22.075L32.2015 21.55L32.6679 21.0625L33.2463 20.6313L33.9552 20.2563L34.7761 19.9188L35.7276 19.6375L36.8097 19.4125L38.0037 19.225L39.3284 19.1125L40.7649 19.0375L42.3321 19L44.7015 19.0938L46.6978 19.3375ZM34.944 23.05L34.5149 23.6687L34.3657 24.4375L34.5149 25.2062L34.944 25.8438L35.5597 26.2562L36.3246 26.425L37.0896 26.2562L37.7052 25.8438L38.1343 25.2062L38.2836 24.4375L38.1343 23.6687L37.7052 23.05L37.0896 22.6375L36.3246 22.4688L35.5597 22.6375L34.944 23.05ZM59.3657 30.4563L59.8881 30.5688L60.4851 30.7937L61.1381 31.1312L61.8097 31.6375L62.4813 32.2938L63.1343 33.175L63.7313 34.2812L64.2537 35.65L64.6455 37.3L64.9067 39.25L65 41.5562L64.8881 43.8625L64.5896 45.8125L64.1418 47.425L63.5448 48.7563L62.8731 49.825L62.1269 50.6687L61.3433 51.2875L60.5597 51.7375L59.8134 52.0375L59.1418 52.2062L58.5448 52.3L58.097 52.3375L57.7985 52.3188H42.4627V53.8563H53.3582L53.3769 59.0312L53.4142 59.7062L53.3209 60.3438L53.1157 60.925L52.7985 61.4688L52.3321 61.9375L51.7537 62.3875L51.0448 62.7625L50.2239 63.0812L49.2724 63.3625L48.1903 63.6063L46.9963 63.775L45.6716 63.9062L44.2351 63.9813L42.6679 64L40.2985 63.925L38.3022 63.6625L36.6231 63.2875L35.2612 62.8188L34.1604 62.2562L33.3209 61.6375L32.6866 61L32.2201 60.3625L31.9216 59.7437L31.7351 59.1813L31.6604 58.7125L31.6231 58.3375L31.6418 58.0938V48.0813L31.7351 46.8813L31.9776 45.8687L32.3694 45.0063L32.8545 44.2937L33.4142 43.6938L34.0299 43.2438L34.6828 42.8687L35.3358 42.6063L35.9515 42.4187L36.5112 42.3063L36.9963 42.2313L37.3881 42.1938L37.6306 42.175H48.5261L49.8134 42.0813L50.9142 41.8188L51.847 41.425L52.6119 40.9L53.2276 40.3L53.7313 39.6438L54.1045 38.9688L54.3843 38.2938L54.5709 37.6375L54.7015 37.0375L54.7761 36.5125L54.8134 36.1187V30.3813H58.7127L58.9739 30.4L59.3657 30.4563ZM47.2948 57.175L46.8657 57.7938L46.7164 58.5625L46.8657 59.3312L47.2948 59.95L47.9104 60.3812L48.6754 60.5312L49.4403 60.3812L50.056 59.95L50.4851 59.3312L50.6343 58.5625L50.4851 57.7938L50.056 57.175L49.4403 56.7437L48.6754 56.5938L47.9104 56.7437L47.2948 57.175Z" fill="#142351"/>
</svg>
