<svg width="37" height="37" viewBox="0 0 37 37" fill="none" xmlns="http://www.w3.org/2000/svg">
<path d="M0 18.5H5.78126V12.7188H0V18.5Z" fill="#030C26"/>
<path d="M0 12.7188H5.78126V6.9375H0V12.7188Z" fill="#030C26"/>
<path d="M5.78125 18.5H11.5625V12.7188H5.78125V18.5Z" fill="#142351"/>
<path d="M0 24.2814H5.78126V18.5001H0V24.2814Z" fill="#030C26"/>
<path d="M0 30.0625H5.78126V24.2812H0V30.0625Z" fill="#33457B"/>
<path d="M5.78125 30.0625H11.5625V24.2812H5.78125V30.0625Z" fill="#030C26"/>
<path d="M11.562 30.0625H17.3433V24.2812H11.562V30.0625Z" fill="#030C26"/>
<path d="M11.562 24.2814H17.3433V18.5001H11.562V24.2814Z" fill="#8291BF"/>
<path d="M11.562 18.5H17.3433V12.7188H11.562V18.5Z" fill="#030C26"/>
<path d="M19.6567 18.5H25.438V12.7188H19.6567V18.5Z" fill="#030C26"/>
<path d="M19.6567 24.2814H25.438V18.5001H19.6567V24.2814Z" fill="#030C26"/>
<path d="M25.4375 24.2814H31.2188V18.5001H25.4375V24.2814Z" fill="#030C26"/>
<path d="M31.2188 24.2814H37V18.5001H31.2188V24.2814Z" fill="#33457B"/>
<path d="M31.2188 30.0625H37V24.2812H31.2188V30.0625Z" fill="#030C26"/>
<path d="M31.2188 18.5H37V12.7188H31.2188V18.5Z" fill="#8291BF"/>
<path d="M19.6567 30.0625H25.438V24.2812H19.6567V30.0625Z" fill="#142351"/>
</svg>
