<svg width="126" height="94" viewBox="0 0 126 94" fill="none" xmlns="http://www.w3.org/2000/svg">
<path d="M65.3489 51.3145V54.4097H72.3964C76.0316 55.1141 76.8111 56.1502 77.3082 58.456L78.5896 69.7431C77.2458 70.9559 76.3361 71.0256 74.532 70.169L73.2506 59.0949C73.0513 58.9178 72.8484 58.8245 72.3964 58.669H54.8845C54.1093 58.6116 53.7474 58.7276 53.3896 59.5208L52.7489 70.169C50.9392 70.8166 49.9963 70.8394 48.4778 69.956L49.332 58.0301C50.2341 55.5314 51.2909 54.8356 53.8167 54.4097H61.0778L60.8642 43.1227L53.8167 43.8974C52.4221 43.8744 51.7504 43.6505 50.6134 43.1227C49.1063 42.4263 48.4586 41.6134 47.8371 37.9147L47.6235 33.8685C49.077 32.6606 50.0799 32.6245 51.8947 33.8684V35.2871M65.3489 45.9904V43.1227L73.2506 43.8974C75.4793 43.6344 76.2688 43.1045 77.0947 41.632L78.5896 36.9468V33.8685C76.8242 32.5814 75.6991 32.5805 74.3184 33.8685V36.7338C74.135 38.1655 73.8998 38.9073 72.8235 39.9283L63.2133 38.8634L53.8167 39.9283C52.732 39.806 52.3492 39.1929 52.1826 37.6848" stroke="#D5DCF2" stroke-width="1.5" stroke-linecap="round"/>
<path d="M46.3422 32.4996C46.066 32.4996 45.8422 32.7235 45.8422 32.9996C45.8422 33.2758 46.066 33.4996 46.3422 33.4996L46.3422 32.4996ZM81.793 32.9996V33.4996H82.293V32.9996H81.793ZM44.2066 38.1108L44.5636 38.4608L44.7066 38.315V38.1108H44.2066ZM39.2947 38.1108H38.7947V38.3242L38.9488 38.4718L39.2947 38.1108ZM39.2947 25.546L38.9416 25.1919L38.7947 25.3385V25.546H39.2947ZM44.2066 25.5461H44.7066V25.3259L44.5442 25.1772L44.2066 25.5461ZM38.2269 37.7589C38.5031 37.7589 38.7269 37.5351 38.7269 37.2589C38.7269 36.9828 38.5031 36.7589 38.2269 36.7589V37.7589ZM36.732 37.2589H36.232C36.232 37.5351 36.4559 37.7589 36.732 37.7589V37.2589ZM36.732 26.1849V25.6849C36.4559 25.6849 36.232 25.9087 36.232 26.1849H36.732ZM38.2269 26.6849C38.5031 26.6849 38.7269 26.461 38.7269 26.1849C38.7269 25.9087 38.5031 25.6849 38.2269 25.6849V26.6849ZM33.7422 29.5923V29.0923C33.466 29.0923 33.2422 29.3161 33.2422 29.5923H33.7422ZM33.7422 34.9163H33.2422L33.7422 35.4163V34.9163ZM34.81 35.4163C35.0861 35.4163 35.31 35.1925 35.31 34.9163C35.31 34.6402 35.0861 34.4163 34.81 34.4163V35.4163ZM81.793 25.546L81.4398 25.192L81.293 25.3385V25.546H81.793ZM86.7049 25.5459H87.2049V25.3327L87.0511 25.1851L86.7049 25.5459ZM86.7049 38.1107L87.0575 38.4652L87.2049 38.3186V38.1107H86.7049ZM81.793 38.1107H81.293V38.33L81.4543 38.4785L81.793 38.1107ZM82.293 35.5552C82.293 35.279 82.0692 35.0552 81.793 35.0552C81.5169 35.0552 81.293 35.279 81.293 35.5552H82.293ZM87.7727 25.6848C87.4966 25.6848 87.2727 25.9086 87.2727 26.1848C87.2727 26.4609 87.4966 26.6848 87.7727 26.6848V25.6848ZM89.4812 26.1848H89.9812V25.6848H89.4812V26.1848ZM89.4812 37.2588V37.7588H89.9812V37.2588H89.4812ZM87.7727 36.7588C87.4966 36.7588 87.2727 36.9827 87.2727 37.2588C87.2727 37.535 87.4966 37.7588 87.7727 37.7588V36.7588ZM92.0439 29.5923H92.5439C92.5439 29.3161 92.32 29.0923 92.0439 29.0923V29.5923ZM92.0439 34.9162V35.4162L92.5439 34.9162H92.0439ZM90.9761 29.0923C90.6999 29.0923 90.4761 29.3161 90.4761 29.5923C90.4761 29.8684 90.6999 30.0923 90.9761 30.0923V29.0923ZM46.3422 32.9996L46.3422 33.4996L81.793 33.4996V32.9996V32.4996L46.3422 32.4996V32.9996ZM81.793 32.9996H82.293V30.8699H81.793H81.293V32.9996H81.793ZM81.793 30.8699V30.3699L44.2066 30.37V30.87L44.2066 31.37L81.793 31.3699V30.8699ZM44.2066 30.87H43.7066V38.1108H44.2066H44.7066V30.87H44.2066ZM44.2066 38.1108L43.8496 37.7607C43.2037 38.4194 42.7537 38.8661 42.3952 39.1472C42.0344 39.43 41.8517 39.4745 41.7356 39.468C41.6065 39.4609 41.4165 39.3847 41.0543 39.082C40.6965 38.7829 40.2676 38.3504 39.6406 37.7497L39.2947 38.1108L38.9488 38.4718C39.544 39.0421 40.0205 39.5212 40.4131 39.8493C40.8013 40.1737 41.2068 40.4403 41.6804 40.4665C42.1669 40.4934 42.594 40.2619 43.0121 39.9342C43.4324 39.6048 43.9304 39.1065 44.5636 38.4608L44.2066 38.1108ZM39.2947 38.1108H39.7947V25.546H39.2947H38.7947V38.1108H39.2947ZM39.2947 25.546L39.6478 25.9C40.2435 25.3059 40.6493 24.8865 40.9869 24.6035C41.3255 24.3196 41.5039 24.2554 41.629 24.2517C41.7563 24.2479 41.9531 24.3034 42.3354 24.5838C42.7133 24.8608 43.1883 25.2919 43.869 25.9149L44.2066 25.5461L44.5442 25.1772C43.8793 24.5687 43.3585 24.0939 42.9267 23.7773C42.4995 23.4641 42.0729 23.2382 41.5996 23.2521C41.124 23.2661 40.7245 23.5186 40.3445 23.8371C39.9634 24.1566 39.5097 24.6254 38.9416 25.1919L39.2947 25.546ZM44.2066 25.5461H43.7066V30.87H44.2066H44.7066V25.5461H44.2066ZM38.2269 37.2589V36.7589H36.732V37.2589V37.7589H38.2269V37.2589ZM36.732 26.1849V26.6849H38.2269V26.1849V25.6849H36.732V26.1849ZM36.732 37.2589H37.232V29.5923H36.732H36.232V37.2589H36.732ZM36.732 29.5923H37.232V26.1849H36.732H36.232V29.5923H36.732ZM36.732 29.5923V29.0923H33.7422V29.5923V30.0923H36.732V29.5923ZM33.7422 29.5923H33.2422V34.9163H33.7422H34.2422V29.5923H33.7422ZM33.7422 34.9163V35.4163H34.81V34.9163V34.4163H33.7422V34.9163ZM81.793 30.8699H82.293V25.546H81.793H81.293V30.8699H81.793ZM81.793 25.546L82.1462 25.8999C82.4553 25.5915 82.718 25.3157 82.944 25.0778C83.1726 24.8373 83.3574 24.6423 83.5207 24.4838C83.8689 24.1458 84.0172 24.0823 84.1015 24.0748C84.1726 24.0685 84.331 24.0929 84.728 24.4058C85.1123 24.7088 85.6131 25.1913 86.3587 25.9067L86.7049 25.5459L87.0511 25.1851C86.3248 24.4884 85.7797 23.9615 85.347 23.6205C84.927 23.2894 84.4974 23.0354 84.0125 23.0788C83.5407 23.1209 83.1651 23.4354 82.8242 23.7662C82.6431 23.9421 82.4421 24.1542 82.2191 24.3889C81.9935 24.6263 81.7388 24.8938 81.4398 25.192L81.793 25.546ZM86.7049 25.5459H86.2049V38.1107H86.7049H87.2049V25.5459H86.7049ZM86.7049 38.1107L86.3523 37.7562C85.6844 38.4207 85.2473 38.8786 84.8965 39.183C84.5376 39.4945 84.3876 39.5335 84.309 39.5324C84.2204 39.5312 84.0567 39.4784 83.6733 39.1591C83.3 38.8481 82.8378 38.3933 82.1318 37.743L81.793 38.1107L81.4543 38.4785C82.1223 39.0938 82.6353 39.5959 83.0333 39.9274C83.4213 40.2506 83.8251 40.5258 84.2951 40.5323C84.7752 40.539 85.1749 40.2654 85.5519 39.9383C85.9371 39.6041 86.4221 39.0973 87.0575 38.4652L86.7049 38.1107ZM81.793 38.1107H82.293V35.5552H81.793H81.293V38.1107H81.793ZM87.7727 26.1848V26.6848H89.4812V26.1848V25.6848H87.7727V26.1848ZM89.4812 37.2588V36.7588H87.7727V37.2588V37.7588H89.4812V37.2588ZM89.4812 26.1848H88.9812V29.5923H89.4812H89.9812V26.1848H89.4812ZM92.0439 29.5923H91.5439V34.9162H92.0439H92.5439V29.5923H92.0439ZM89.4812 29.5923H88.9812V34.9162H89.4812H89.9812V29.5923H89.4812ZM89.4812 34.9162H88.9812V37.2588H89.4812H89.9812V34.9162H89.4812ZM92.0439 34.9162V34.4162H89.4812V34.9162V35.4162H92.0439V34.9162ZM92.0439 29.5923V29.0923H90.9761V29.5923V30.0923H92.0439V29.5923Z" fill="#D5DCF2"/>
<path d="M67.3752 32.7865C67.3752 35.3107 65.3227 37.3605 62.7863 37.3605C60.2498 37.3605 58.1973 35.3107 58.1973 32.7865C58.1973 30.2623 60.2498 28.2124 62.7863 28.2124C65.3227 28.2124 67.3752 30.2623 67.3752 32.7865Z" fill="#142351" stroke="#D5DCF2" stroke-width="1.5"/>
<path d="M122.557 42.8292L122.557 42.8293L122.562 42.8372C123.774 44.6169 124.748 46.2193 125.43 47.3685C124.826 48.5483 123.985 50.0296 122.956 51.823C120.427 56.0449 116.53 61.6985 111.335 67.3513C100.808 78.589 84.9838 89.5186 63.0344 89.5186C41.0849 89.5186 25.2608 78.5889 14.7333 67.3513C9.53744 61.6973 5.6398 56.0426 3.11078 51.8205C2.01683 49.961 1.16687 48.4064 0.560172 47.213C1.16688 46.0196 2.01684 44.465 3.11081 42.6055C5.63981 38.3835 9.53741 32.7288 14.7332 27.0749C25.2607 15.8372 41.0848 4.90747 63.0344 4.90747C83.1919 4.90747 99.0182 15.6951 110.106 27.1511C115.577 32.8068 119.751 38.533 122.557 42.8292ZM119.038 47.7912L119.188 47.5275L119.023 47.2727C118.731 46.8206 118.419 46.3489 118.089 45.8638L118.059 45.8209L118.054 45.8129L118.026 45.7693L117.607 46.0427L118.026 45.7693C115.35 41.673 111.384 36.2367 106.213 30.8914L106.213 30.8913C95.6481 19.9753 81.1359 10.2964 63.0344 10.2964C43.0887 10.2964 28.6023 20.1737 18.7045 30.732L18.7044 30.7319L18.701 30.7357C13.8136 36.0575 10.139 41.3876 7.76497 45.3482L7.76285 45.3518C7.42573 45.9251 7.11522 46.4641 6.83101 46.967L6.69202 47.213L6.83101 47.459C7.11522 47.962 7.42573 48.5009 7.76283 49.0742L7.76499 49.0778C10.139 53.0384 13.8137 58.3686 18.701 63.6904L18.7045 63.6942C28.6023 74.2524 43.0887 84.1297 63.0344 84.1297C82.9801 84.1297 97.4665 74.2523 107.364 63.6941L107.368 63.6903C112.243 58.3818 115.911 53.065 118.286 49.1075L118.286 49.1076L118.291 49.099C118.558 48.6333 118.807 48.1981 119.038 47.7912Z" stroke="#D5DCF2"/>
<path d="M12.9507 86.824H23.9187V92.9999H12.9507C8.82705 92.4017 7.32477 91.2245 6.83398 86.824V75.9629H12.9507V86.824Z" stroke="#D5DCF2"/>
<path d="M12.9507 7.176H23.9187V1.00007H12.9507C8.82705 1.59829 7.32477 2.7755 6.83398 7.176V18.0371H12.9507V7.176Z" stroke="#D5DCF2"/>
<path d="M113.049 7.176H102.081V1.00007H113.049C117.173 1.59829 118.675 2.7755 119.166 7.176V18.0371H113.049V7.176Z" stroke="#D5DCF2"/>
<path d="M113.049 86.824H102.081V92.9999H113.049C117.173 92.4017 118.675 91.2245 119.166 86.824V75.9629H113.049V86.824Z" stroke="#D5DCF2"/>
</svg>
