<svg width="84" height="84" viewBox="0 0 84 84" fill="none" xmlns="http://www.w3.org/2000/svg">
<circle cx="42" cy="42" r="39.5" stroke="#142351" stroke-width="5"/>
<path d="M42.311 19C36.3781 19 31.5687 24.1772 31.5687 30.5638C31.5687 34.8064 33.6914 38.5158 36.8559 40.5277L39.9331 34.9067C40.0102 34.7656 39.9661 34.5852 39.8403 34.4934C38.6716 33.6402 37.9038 32.1985 37.9038 30.5636C37.9038 27.9437 39.8771 25.8195 42.311 25.8195C44.7449 25.8195 46.7182 27.9437 46.7182 30.5638C46.7182 32.1983 45.9504 33.6402 44.7817 34.4936C44.6559 34.5852 44.6116 34.7656 44.6889 34.9067L47.7665 40.5279C50.9311 38.5158 53.0538 34.8066 53.0538 30.5638C53.0538 24.1772 48.2439 19 42.311 19ZM30.7422 40.8725C24.8094 40.8725 20 46.0497 20 52.4362C20 58.8228 24.8094 64 30.7422 64C36.7044 64 41.6311 58.5514 41.4813 52.1395H35.4337C35.2749 52.1395 35.15 52.2843 35.1489 52.4552C35.1335 55.0105 33.1531 57.1805 30.7422 57.1805C28.3083 57.1805 26.3351 55.0563 26.3351 52.4362C26.3351 49.816 28.3083 47.692 30.7422 47.692C31.3797 47.692 31.9854 47.8382 32.5323 48.1001C32.666 48.1643 32.8259 48.1157 32.9002 47.98L35.9872 42.3417C34.436 41.4059 32.6469 40.8725 30.7422 40.8725ZM59.6967 42.4093L56.6281 48.0362C56.5512 48.1774 56.5959 48.3579 56.7219 48.4495C57.8919 49.3007 58.6621 50.7412 58.6649 52.3757C58.669 54.9956 56.6994 57.1229 54.2652 57.1274C51.8315 57.132 49.8547 55.0117 49.8506 52.3918C49.8477 50.7573 50.6133 49.3142 51.7807 48.4588C51.9063 48.3666 51.9504 48.1857 51.8729 48.0448L48.7859 42.4301C45.6249 44.4481 43.5086 48.1611 43.5153 52.4039C43.5258 58.7903 48.3434 63.9588 54.2765 63.9475C60.2092 63.9366 65.0101 58.7502 65 52.3636C64.993 48.1205 62.8644 44.4152 59.6967 42.4093Z" fill="#142351"/>
</svg>
