<svg width="84" height="84" viewBox="0 0 84 84" fill="none" xmlns="http://www.w3.org/2000/svg">
<circle cx="42" cy="42" r="39.5" stroke="#142351" stroke-width="5"/>
<path d="M34.8832 55.4412C34.8832 55.4412 32.8102 56.5741 36.3586 56.9577C40.655 57.419 42.8521 57.3519 47.5883 56.5105C47.5883 56.5105 48.8325 57.244 50.5729 57.8803C39.9559 62.1595 26.5441 57.6329 34.8832 55.4412Z" fill="#142351"/>
<path d="M33.5862 49.8572C33.5862 49.8572 31.2613 51.4745 34.8116 51.8209C39.4012 52.2663 43.0267 52.3034 49.3003 51.1669C49.3003 51.1669 50.1686 51.9941 51.5331 52.4466C38.6983 55.9763 24.4013 52.7241 33.5862 49.8572Z" fill="#142351"/>
<path d="M44.5229 40.385C47.1391 43.2166 43.835 45.7653 43.835 45.7653C43.835 45.7653 50.477 42.5414 47.4266 38.5026C44.5774 34.7378 42.3934 32.866 54.2208 26.4146C54.2208 26.4146 35.6556 30.7768 44.5229 40.385Z" fill="#142351"/>
<path d="M58.5633 59.5714C58.5633 59.5714 60.0969 60.7592 56.8737 61.6783C50.7467 63.4246 31.3695 63.9513 25.9868 61.7472C24.0509 60.9554 27.6801 59.8577 28.821 59.6262C30.0107 59.384 30.691 59.4282 30.691 59.4282C28.5391 58.0018 16.7812 62.228 24.7181 63.437C46.3638 66.7387 64.1753 61.9505 58.5614 59.5679L58.5633 59.5714Z" fill="#142351"/>
<path d="M35.8807 44.0718C35.8807 44.0718 26.0248 46.2741 32.3905 47.0731C35.0782 47.4107 40.4365 47.3347 45.4283 46.9423C49.5067 46.6188 53.602 45.9313 53.602 45.9313C53.602 45.9313 52.1643 46.511 51.123 47.1791C41.115 49.6554 21.7792 48.503 27.3461 45.9701C32.0541 43.8297 35.8807 44.0718 35.8807 44.0718Z" fill="#142351"/>
<path d="M53.5618 53.3672C63.7353 48.3952 59.031 43.6176 55.7476 44.261C54.9432 44.4183 54.5842 44.5544 54.5842 44.5544C54.5842 44.5544 54.883 44.1143 55.4544 43.9234C61.9498 41.7758 66.9454 50.2582 53.3569 53.6165C53.3569 53.6165 53.5148 53.4857 53.5618 53.3672Z" fill="#142351"/>
<path d="M47.427 16C47.427 16 53.0616 21.3008 42.0818 29.4526C33.2784 35.9906 40.0745 39.7201 42.078 43.9798C36.9396 39.6194 33.1676 35.7803 35.6973 32.2081C39.4111 26.9639 49.6992 24.4205 47.4251 16.0018L47.427 16Z" fill="#142351"/>
<path d="M36.8811 66.8393C46.6468 67.4279 61.6448 66.5141 62 62.1677C62 62.1677 61.3178 63.8151 53.9296 65.123C45.5943 66.5989 35.3137 66.4257 29.2148 65.4801C29.2148 65.4801 30.4628 66.4522 36.8811 66.8393Z" fill="#142351"/>
</svg>
